<svg width="120" height="22" viewBox="0 0 120 22" fill="none" xmlns="http://www.w3.org/2000/svg">
<path d="M22.5 0H0V22H22.5V0Z" fill="#00B67A"/>
<path d="M46.875 0H24.375V22H46.875V0Z" fill="#00B67A"/>
<path d="M71.25 0H48.75V22H71.25V0Z" fill="#00B67A"/>
<path d="M95.625 0H73.125V22H95.625V0Z" fill="#00B67A"/>
<path d="M120 0H97.5V22H120V0Z" fill="#00B67A"/>
<path d="M11.25 14.8271L14.6719 13.9792L16.1016 18.2875L11.25 14.8271ZM19.125 9.25833H13.1016L11.25 3.71249L9.39844 9.25833H3.375L8.25 12.6958L6.39844 18.2417L11.2734 14.8042L14.2734 12.6958L19.125 9.25833Z" fill="white"/>
<path d="M35.625 14.8271L39.0469 13.9792L40.4766 18.2875L35.625 14.8271ZM43.5 9.25833H37.4766L35.625 3.71249L33.7734 9.25833H27.75L32.625 12.6958L30.7734 18.2417L35.6484 14.8042L38.6484 12.6958L43.5 9.25833Z" fill="white"/>
<path d="M60 14.8271L63.4219 13.9792L64.8516 18.2875L60 14.8271ZM67.875 9.25833H61.8516L60 3.71249L58.1484 9.25833H52.125L57 12.6958L55.1484 18.2417L60.0234 14.8042L63.0234 12.6958L67.875 9.25833Z" fill="white"/>
<path d="M84.375 14.8271L87.7969 13.9792L89.2266 18.2875L84.375 14.8271ZM92.25 9.25833H86.2266L84.375 3.71249L82.5234 9.25833H76.5L81.375 12.6958L79.5234 18.2417L84.3984 14.8042L87.3984 12.6958L92.25 9.25833Z" fill="white"/>
<path d="M108.75 14.8271L112.172 13.9792L113.602 18.2875L108.75 14.8271ZM116.625 9.25833H110.602L108.75 3.71249L106.898 9.25833H100.875L105.75 12.6958L103.898 18.2417L108.773 14.8042L111.773 12.6958L116.625 9.25833Z" fill="white"/>
</svg>
