<svg width="120" height="29" viewBox="0 0 120 29" fill="none" xmlns="http://www.w3.org/2000/svg">
<g clip-path="url(#clip0)">
<path d="M31.536 10.2782H43.6864V12.509H38.9089V25.0493H36.2817V12.509H31.5254V10.2782H31.536ZM43.1673 14.3541H45.4131V16.4181H45.4555C45.5296 16.1262 45.6673 15.8447 45.8686 15.5737C46.0699 15.3027 46.3135 15.0421 46.5995 14.8232C46.8856 14.5938 47.2034 14.4166 47.5529 14.2707C47.9025 14.1352 48.2627 14.0622 48.6228 14.0622C48.8983 14.0622 49.0995 14.0726 49.2055 14.083C49.3114 14.0935 49.4173 14.1143 49.5339 14.1247V16.3972C49.3644 16.3659 49.1949 16.3451 49.0148 16.3242C48.8347 16.3034 48.6652 16.293 48.4957 16.293C48.0932 16.293 47.7118 16.3764 47.3517 16.5327C46.9915 16.6891 46.6843 16.9288 46.4195 17.2311C46.1546 17.5439 45.9428 17.9191 45.7839 18.3778C45.625 18.8365 45.5508 19.3577 45.5508 19.9518V25.0388H43.1567V14.3541H43.1673ZM60.5402 25.0493H58.1885V23.5586H58.1461C57.8495 24.1007 57.4152 24.528 56.8326 24.8512C56.25 25.1743 55.6567 25.3411 55.0529 25.3411C53.6228 25.3411 52.5847 24.9971 51.9491 24.2987C51.3135 23.6003 50.9957 22.5475 50.9957 21.1402V14.3541H53.3898V20.9109C53.3898 21.849 53.5699 22.5162 53.9406 22.9019C54.3008 23.2876 54.8199 23.4856 55.4767 23.4856C55.9851 23.4856 56.3983 23.4127 56.7372 23.2563C57.0762 23.0999 57.3517 22.9019 57.5529 22.6413C57.7648 22.3911 57.9131 22.0784 58.0084 21.724C58.1038 21.3695 58.1461 20.9838 58.1461 20.5669V14.3645H60.5402V25.0493ZM64.6186 21.6197C64.6928 22.3077 64.9576 22.7872 65.4131 23.0687C65.8792 23.3397 66.43 23.4856 67.0762 23.4856C67.2987 23.4856 67.5529 23.4648 67.8389 23.4335C68.125 23.4022 68.4004 23.3293 68.644 23.2355C68.8983 23.1416 69.0995 22.9957 69.269 22.8081C69.4279 22.6204 69.5021 22.3807 69.4915 22.0784C69.4809 21.7761 69.3644 21.5259 69.1525 21.3383C68.9406 21.1402 68.6758 20.9943 68.3474 20.8692C68.019 20.7545 67.6483 20.6503 67.2245 20.5669C66.8008 20.4835 66.3771 20.3897 65.9428 20.2958C65.4978 20.202 65.0635 20.0769 64.6504 19.9414C64.2372 19.8059 63.8665 19.6183 63.5381 19.3785C63.2097 19.1492 62.9449 18.8469 62.7542 18.482C62.5529 18.1172 62.4576 17.669 62.4576 17.1269C62.4576 16.5431 62.6059 16.0636 62.8919 15.6675C63.1779 15.2714 63.5487 14.9587 63.983 14.7189C64.4279 14.4792 64.9152 14.3124 65.4555 14.2081C65.9957 14.1143 66.5148 14.0622 67.0021 14.0622C67.5635 14.0622 68.1038 14.1247 68.6122 14.2394C69.1207 14.3541 69.5868 14.5417 70 14.8127C70.4131 15.0733 70.7521 15.4173 71.0275 15.8343C71.3029 16.2513 71.4724 16.7621 71.5466 17.3562H69.0466C68.93 16.7933 68.6758 16.4076 68.2627 16.22C67.8495 16.0219 67.3728 15.9281 66.8432 15.9281C66.6737 15.9281 66.4724 15.9385 66.2394 15.9698C66.0063 16.0011 65.7944 16.0532 65.5826 16.1262C65.3813 16.1991 65.2118 16.3138 65.0635 16.4598C64.9258 16.6057 64.8517 16.7933 64.8517 17.0331C64.8517 17.325 64.9576 17.5543 65.1589 17.7315C65.3601 17.9087 65.625 18.0546 65.9533 18.1797C66.2817 18.2944 66.6525 18.3986 67.0762 18.482C67.5 18.5654 67.9343 18.6592 68.3792 18.7531C68.8135 18.8469 69.2372 18.972 69.661 19.1075C70.0847 19.243 70.4555 19.4306 70.7839 19.6704C71.1122 19.9101 71.3771 20.202 71.5783 20.5564C71.7796 20.9109 71.8855 21.3591 71.8855 21.8803C71.8855 22.5162 71.7372 23.0478 71.4406 23.4961C71.144 23.9339 70.7627 24.2987 70.2966 24.5697C69.8305 24.8408 69.3008 25.0493 68.7288 25.1743C68.1567 25.2994 67.5847 25.362 67.0233 25.362C66.3347 25.362 65.6991 25.289 65.1165 25.1326C64.5339 24.9763 64.0254 24.747 63.6017 24.4447C63.1779 24.1319 62.8389 23.7462 62.5953 23.2876C62.3517 22.8289 62.2245 22.2764 62.2034 21.6406H64.6186V21.6197ZM72.5211 14.3541H74.3326V11.1434H76.7266V14.3541H78.8877V16.1158H76.7266V21.8282C76.7266 22.0784 76.7372 22.2869 76.7584 22.4745C76.7796 22.6517 76.8326 22.8081 76.9067 22.9332C76.9809 23.0582 77.0974 23.1521 77.2563 23.2146C77.4152 23.2772 77.6165 23.3084 77.8919 23.3084C78.0614 23.3084 78.2309 23.3084 78.4004 23.298C78.5699 23.2876 78.7394 23.2667 78.9089 23.225V25.0493C78.644 25.0805 78.3792 25.1014 78.1355 25.1326C77.8813 25.1639 77.6271 25.1743 77.3622 25.1743C76.7266 25.1743 76.2182 25.1118 75.8368 24.9971C75.4555 24.8825 75.1483 24.7053 74.9364 24.4759C74.7139 24.2466 74.5762 23.9651 74.4915 23.6211C74.4173 23.2772 74.3644 22.881 74.3538 22.4432V16.1366H72.5423V14.3541H72.5211ZM80.5826 14.3541H82.8495V15.803H82.8919C83.2309 15.1776 83.697 14.7398 84.3008 14.4687C84.9046 14.1977 85.5508 14.0622 86.2605 14.0622C87.1186 14.0622 87.8601 14.2081 88.4957 14.5104C89.1313 14.8023 89.661 15.2089 90.0847 15.7301C90.5084 16.2513 90.8156 16.8559 91.0275 17.5439C91.2394 18.2319 91.3453 18.972 91.3453 19.7538C91.3453 20.4731 91.25 21.1715 91.0593 21.8386C90.8686 22.5162 90.5826 23.1104 90.2012 23.6316C89.8199 24.1528 89.3326 24.5593 88.7394 24.872C88.1461 25.1848 87.4576 25.3411 86.6525 25.3411C86.3029 25.3411 85.9533 25.3099 85.6038 25.2473C85.2542 25.1848 84.9152 25.0805 84.5974 24.945C84.2796 24.8095 83.9724 24.6323 83.7076 24.4134C83.4322 24.1945 83.2097 23.9443 83.019 23.6628H82.9766V29H80.5826V14.3541ZM88.9512 19.7121C88.9512 19.2326 88.8877 18.7635 88.7606 18.3048C88.6334 17.8462 88.4428 17.45 88.1885 17.0956C87.9343 16.7412 87.6165 16.4598 87.2457 16.2513C86.8644 16.0428 86.43 15.9281 85.9427 15.9281C84.9364 15.9281 84.1737 16.2721 83.6652 16.9601C83.1567 17.6481 82.9025 18.5654 82.9025 19.7121C82.9025 20.2541 82.9661 20.7545 83.1038 21.2132C83.2415 21.6718 83.4322 22.0679 83.7076 22.4015C83.9724 22.7351 84.2902 22.9957 84.661 23.1833C85.0317 23.3814 85.4661 23.4752 85.9533 23.4752C86.5042 23.4752 86.9597 23.3605 87.3411 23.1416C87.7224 22.9227 88.0296 22.6309 88.2733 22.2869C88.5169 21.9324 88.697 21.5363 88.8029 21.0881C88.8983 20.6398 88.9512 20.1812 88.9512 19.7121ZM93.1779 10.2782H95.572V12.509H93.1779V10.2782ZM93.1779 14.3541H95.572V25.0493H93.1779V14.3541ZM97.7118 10.2782H100.106V25.0493H97.7118V10.2782ZM107.447 25.3411C106.578 25.3411 105.805 25.1952 105.127 24.9137C104.449 24.6323 103.877 24.2362 103.4 23.7462C102.934 23.2459 102.574 22.6517 102.33 21.9637C102.087 21.2757 101.96 20.5147 101.96 19.6912C101.96 18.8782 102.087 18.1276 102.33 17.4396C102.574 16.7516 102.934 16.1575 103.4 15.6571C103.866 15.1567 104.449 14.771 105.127 14.4896C105.805 14.2081 106.578 14.0622 107.447 14.0622C108.316 14.0622 109.089 14.2081 109.767 14.4896C110.445 14.771 111.017 15.1672 111.494 15.6571C111.96 16.1575 112.32 16.7516 112.564 17.4396C112.807 18.1276 112.934 18.8782 112.934 19.6912C112.934 20.5147 112.807 21.2757 112.564 21.9637C112.32 22.6517 111.96 23.2459 111.494 23.7462C111.027 24.2466 110.445 24.6323 109.767 24.9137C109.089 25.1952 108.316 25.3411 107.447 25.3411ZM107.447 23.4752C107.977 23.4752 108.443 23.3605 108.835 23.1416C109.227 22.9227 109.544 22.6309 109.799 22.2764C110.053 21.922 110.233 21.5155 110.36 21.0672C110.477 20.619 110.54 20.1603 110.54 19.6912C110.54 19.2326 110.477 18.7843 110.36 18.3257C110.244 17.867 110.053 17.4709 109.799 17.1165C109.544 16.7621 109.227 16.4806 108.835 16.2617C108.443 16.0428 107.977 15.9281 107.447 15.9281C106.917 15.9281 106.451 16.0428 106.059 16.2617C105.667 16.4806 105.35 16.7725 105.095 17.1165C104.841 17.4709 104.661 17.867 104.534 18.3257C104.417 18.7843 104.354 19.2326 104.354 19.6912C104.354 20.1603 104.417 20.619 104.534 21.0672C104.65 21.5155 104.841 21.922 105.095 22.2764C105.35 22.6309 105.667 22.9227 106.059 23.1416C106.451 23.371 106.917 23.4752 107.447 23.4752ZM113.633 14.3541H115.445V11.1434H117.839V14.3541H120V16.1158H117.839V21.8282C117.839 22.0784 117.85 22.2869 117.871 22.4745C117.892 22.6517 117.945 22.8081 118.019 22.9332C118.093 23.0582 118.21 23.1521 118.369 23.2146C118.527 23.2772 118.729 23.3084 119.004 23.3084C119.174 23.3084 119.343 23.3084 119.513 23.298C119.682 23.2876 119.852 23.2667 120.021 23.225V25.0493C119.756 25.0805 119.491 25.1014 119.248 25.1326C118.994 25.1639 118.739 25.1743 118.475 25.1743C117.839 25.1743 117.33 25.1118 116.949 24.9971C116.568 24.8825 116.261 24.7053 116.049 24.4759C115.826 24.2466 115.689 23.9651 115.604 23.6211C115.53 23.2772 115.477 22.881 115.466 22.4432V16.1366H113.655V14.3541H113.633Z" fill="white"/>
<path d="M14.375 20.546L20.6356 18.9511L23.2627 26.8943L14.375 20.546ZM28.7394 10.2782H17.7648L14.375 0L10.9852 10.2782L0 10.2678L8.88772 16.6161L5.49788 26.8943L14.375 20.546L19.8623 16.6265L28.7394 10.2782Z" fill="white"/>
</g>
<defs>
<clipPath id="clip0">
<rect width="120" height="29" fill="white"/>
</clipPath>
</defs>
</svg>
