<svg viewBox="0 0 292 292" fill="none" xmlns="http://www.w3.org/2000/svg">
<g clip-path="url(#clip0)">
<path d="M274.369 107.24C272.399 106.064 269.956 106.008 267.937 107.095L225.79 129.781V110.34C225.79 106.741 222.871 103.822 219.273 103.822H208.673C221.892 93.1011 230.358 76.7365 230.358 58.429C230.359 26.2115 204.147 0 171.929 0C144.43 0 121.31 19.098 115.127 44.7261C107.039 34.9669 94.8313 28.7391 81.1951 28.7391C56.8999 28.7391 37.1351 48.5044 37.1351 72.7991C37.1351 84.8891 42.0318 95.8545 49.9438 103.824H43.9926C40.3928 103.824 37.4745 106.742 37.4745 110.342V139.929H20.9737C17.3739 139.929 14.4556 142.848 14.4556 146.447V172.079C14.4556 175.679 17.3739 178.598 20.9737 178.598H37.4739V208.185C37.4739 211.785 40.3922 214.703 43.992 214.703H120.884L85.5557 282.47C83.8916 285.662 85.1303 289.598 88.3223 291.263C89.285 291.764 90.315 292.002 91.3296 292.002C93.6809 292.002 95.9519 290.725 97.1142 288.497L131.631 222.285L166.149 288.497C167.311 290.727 169.583 292.002 171.934 292.002C172.949 292.002 173.979 291.764 174.941 291.263C178.133 289.598 179.372 285.662 177.707 282.47L142.379 214.703H219.272C222.871 214.703 225.79 211.785 225.79 208.185V188.744L267.937 211.429C268.903 211.949 269.964 212.208 271.026 212.208C272.183 212.208 273.34 211.899 274.369 211.286C276.339 210.109 277.544 207.984 277.544 205.69V112.835C277.544 110.541 276.339 108.416 274.369 107.24ZM37.4745 165.56H27.4917V152.963H37.4745V165.56ZM171.929 13.0356C196.959 13.0356 217.323 33.3991 217.323 58.4295C217.323 83.4599 196.959 103.823 171.929 103.823C146.899 103.823 126.535 83.4594 126.535 58.4295C126.536 33.3997 146.9 13.0356 171.929 13.0356ZM122.156 88.9994C125.637 94.6477 130.053 99.6602 135.186 103.823H112.446C116.615 99.6243 119.936 94.589 122.156 88.9994ZM81.1951 41.7742C98.3016 41.7742 112.219 55.6915 112.219 72.7985C112.219 89.9056 98.3022 103.823 81.1951 103.823C64.0886 103.823 50.1707 89.9062 50.1707 72.7985C50.1713 55.6915 64.0886 41.7742 81.1951 41.7742ZM212.755 140.691V177.831V201.664H131.749C131.737 201.664 131.726 201.664 131.714 201.664H131.542C131.534 201.664 131.527 201.664 131.519 201.664H50.5101V172.077V146.445V116.858H212.755V140.691ZM264.508 194.778L225.79 173.938V144.585L264.508 123.744V194.778Z" fill="url(#paint0_linear)"/>
<path d="M81.1954 53C70.2779 53 61.3965 61.882 61.3965 72.7989C61.3965 83.7164 70.2785 92.5979 81.1954 92.5979C92.1129 92.5979 100.994 83.7158 100.994 72.7989C100.995 61.882 92.1129 53 81.1954 53ZM81.1954 80.8654C76.747 80.8654 73.1284 77.2468 73.1284 72.7984C73.1284 68.3499 76.747 64.7313 81.1954 64.7313C85.6438 64.7313 89.2625 68.3499 89.2625 72.7984C89.2625 77.2468 85.6433 80.8654 81.1954 80.8654Z" fill="url(#paint1_linear)"/>
<path d="M171.929 29.9951C156.251 29.9951 143.496 42.7507 143.496 58.4291C143.496 74.107 156.251 86.8626 171.929 86.8626C187.607 86.8626 200.363 74.107 200.363 58.4291C200.363 42.7507 187.608 29.9951 171.929 29.9951ZM171.929 73.827C163.439 73.827 156.531 66.9194 156.531 58.4291C156.531 49.9389 163.439 43.0307 171.929 43.0307C180.419 43.0307 187.327 49.9383 187.327 58.4291C187.327 66.9199 180.419 73.827 171.929 73.827Z" fill="url(#paint2_linear)"/>
<path d="M150.901 135.812H80.0337C76.6135 135.812 73.8418 138.585 73.8418 142.004V176.519C73.8418 179.939 76.6141 182.711 80.0337 182.711H150.901C154.321 182.711 157.092 179.939 157.092 176.519V142.004C157.092 138.585 154.32 135.812 150.901 135.812ZM144.708 170.327H86.2255V148.197H144.709V170.327H144.708Z" fill="url(#paint3_linear)"/>
<path d="M185.087 155.04C188.687 155.04 191.605 152.121 191.605 148.522C191.605 144.922 188.687 142.003 185.087 142.003C181.487 142.003 178.569 144.922 178.569 148.522C178.569 152.121 181.487 155.04 185.087 155.04Z" fill="url(#paint4_linear)"/>
<path d="M185.087 176.516C188.687 176.516 191.605 173.598 191.605 169.998C191.605 166.398 188.687 163.48 185.087 163.48C181.487 163.48 178.569 166.398 178.569 169.998C178.569 173.598 181.487 176.516 185.087 176.516Z" fill="url(#paint5_linear)"/>
</g>
<defs>
<linearGradient id="paint0_linear" x1="146" y1="0" x2="146" y2="292.002" gradientUnits="userSpaceOnUse">
<stop offset="0.243094" stop-color="#00BBC9"/>
<stop offset="1" stop-color="#0365C0"/>
</linearGradient>
<linearGradient id="paint1_linear" x1="81.1954" y1="53" x2="81.1954" y2="92.5979" gradientUnits="userSpaceOnUse">
<stop offset="0.243094" stop-color="#00BBC9"/>
<stop offset="1" stop-color="#0365C0"/>
</linearGradient>
<linearGradient id="paint2_linear" x1="171.929" y1="29.9951" x2="171.929" y2="86.8626" gradientUnits="userSpaceOnUse">
<stop offset="0.243094" stop-color="#00BBC9"/>
<stop offset="1" stop-color="#0365C0"/>
</linearGradient>
<linearGradient id="paint3_linear" x1="115.467" y1="135.812" x2="115.467" y2="182.711" gradientUnits="userSpaceOnUse">
<stop offset="0.243094" stop-color="#00BBC9"/>
<stop offset="1" stop-color="#0365C0"/>
</linearGradient>
<linearGradient id="paint4_linear" x1="185.087" y1="142.003" x2="185.087" y2="155.04" gradientUnits="userSpaceOnUse">
<stop offset="0.243094" stop-color="#00BBC9"/>
<stop offset="1" stop-color="#0365C0"/>
</linearGradient>
<linearGradient id="paint5_linear" x1="185.087" y1="163.48" x2="185.087" y2="176.516" gradientUnits="userSpaceOnUse">
<stop offset="0.243094" stop-color="#00BBC9"/>
<stop offset="1" stop-color="#0365C0"/>
</linearGradient>
<clipPath id="clip0">
<rect width="292" height="292" fill="white"/>
</clipPath>
</defs>
</svg>
