<svg viewBox="0 0 292 292" fill="none" xmlns="http://www.w3.org/2000/svg">
<path d="M284.683 193.255L251.328 226.611C248.606 224.955 245.412 224 241.999 224C238.436 224 235.114 225.046 232.315 226.839C232.109 226.262 231.778 225.718 231.316 225.256L185.602 179.542C185.391 179.331 185.164 179.147 184.924 178.989L187.962 127.35C188.772 127.194 189.546 126.801 190.173 126.174L249.602 66.7454C249.824 66.5231 250.015 66.2813 250.178 66.0271C250.569 65.8265 250.954 65.6168 251.328 65.3894L284.683 98.7447C285.52 99.5813 286.617 100 287.714 100C288.81 100 289.907 99.5819 290.744 98.7447C292.418 97.071 292.418 94.3579 290.744 92.6842L257.389 59.3288C259.045 56.6065 259.999 53.4128 259.999 50.0002C259.999 40.0751 251.925 32.0003 241.999 32.0003C238.587 32.0003 235.393 32.9551 232.671 34.6111L199.316 1.25577C197.642 -0.417939 194.929 -0.417939 193.256 1.25577C191.582 2.92948 191.582 5.64262 193.256 7.31633L226.611 40.6717C224.954 43.394 223.999 46.5877 223.999 50.0002C223.999 50.7591 224.052 51.5054 224.143 52.2397L181.228 82.2808C180.054 80.6253 178.764 79.0333 177.343 77.5259C169.119 68.8036 157.988 64.0002 146 64.0002C134.012 64.0002 122.88 68.8036 114.656 77.5259C113.235 79.0333 111.945 80.6248 110.772 82.2808L67.8557 52.2397C67.9472 51.5054 67.9997 50.7591 67.9997 50.0002C67.9997 46.5877 67.0449 43.394 65.3889 40.6717L98.7442 7.31633C100.418 5.64262 100.418 2.92948 98.7442 1.25577C97.0705 -0.417939 94.3568 -0.417939 92.6837 1.25577L59.3283 34.6111C56.606 32.9551 53.4123 32.0003 49.9998 32.0003C40.0746 32.0003 31.9998 40.0751 31.9998 50.0002C31.9998 53.4128 32.9547 56.6065 34.6106 59.3288L1.25528 92.6842C-0.418428 94.3579 -0.418428 97.071 1.25528 98.7447C2.09185 99.5819 3.18899 100 4.28556 100C5.38213 100 6.47927 99.5819 7.31584 98.7447L40.6712 65.3894C41.0449 65.6168 41.4306 65.8265 41.8215 66.0271C41.9849 66.2813 42.1752 66.5231 42.3975 66.7454L101.826 126.174C102.453 126.801 103.227 127.194 104.037 127.35L107.075 178.989C106.836 179.147 106.608 179.331 106.397 179.542L60.6832 225.256C60.2203 225.719 59.8906 226.262 59.6837 226.839C56.8855 225.046 53.5638 224 49.9998 224C46.5872 224 43.3935 224.955 40.6712 226.611L7.31584 193.255C5.64213 191.582 2.92842 191.582 1.25528 193.255C-0.418428 194.929 -0.418428 197.643 1.25528 199.316L34.6106 232.671C32.9547 235.394 31.9998 238.587 31.9998 242C31.9998 251.925 40.0746 260 49.9998 260C53.4123 260 56.606 259.046 59.3283 257.39L92.6837 290.745C93.5203 291.582 94.6174 292 95.714 292C96.8105 292 97.9077 291.582 98.7442 290.745C100.418 289.071 100.418 286.357 98.7442 284.684L66.246 252.186L118.503 224.047C122.139 226.541 126.53 228 131.241 228H160.758C165.469 228 169.86 226.541 173.496 224.047L225.753 252.186L193.255 284.684C191.581 286.358 191.581 289.072 193.255 290.745C194.092 291.582 195.189 292 196.285 292C197.382 292 198.479 291.582 199.316 290.745L232.671 257.39C235.393 259.046 238.587 260 241.999 260C251.925 260 259.999 251.925 259.999 242C259.999 238.587 259.045 235.394 257.389 232.672L290.744 199.316C292.418 197.643 292.418 194.929 290.744 193.256C289.071 191.582 286.357 191.582 284.683 193.255ZM225.255 231.316C225.718 231.779 226.261 232.109 226.839 232.316C225.127 234.986 224.102 238.134 224.012 241.513L179.717 217.662C181.769 214.491 183.054 210.771 183.291 206.755L184.258 190.319L225.255 231.316ZM241.999 40.5717C247.198 40.5717 251.428 44.8014 251.428 50.0002C251.428 55.1997 247.198 59.4288 241.999 59.4288C236.801 59.4288 232.571 55.1997 232.571 50.0002C232.571 44.8014 236.801 40.5717 241.999 40.5717ZM227.359 60.4516C229.677 63.6899 233.039 66.1294 236.951 67.2745L188.655 115.57L189.006 109.609C189.414 102.665 188.181 95.9184 185.476 89.7705L227.359 60.4516ZM120.893 83.4065C121.704 82.5465 122.55 81.735 123.429 80.9716V91.1419C123.429 93.5087 125.348 95.4276 127.714 95.4276C130.081 95.4276 132 93.5087 132 91.1419V77.4288C132 76.8082 131.865 76.2196 131.628 75.687C136.068 73.6516 140.936 72.5716 146 72.5716C151.063 72.5716 155.931 73.6516 160.372 75.687C160.134 76.2196 160 76.8082 160 77.4288V91.1419C160 93.5087 161.918 95.4276 164.285 95.4276C166.652 95.4276 168.571 93.5087 168.571 91.1419V80.9716C169.449 81.735 170.296 82.5465 171.107 83.4065C177.695 90.3933 181.012 99.5201 180.448 109.106L174.734 206.251C174.469 210.76 172.076 214.671 168.571 217.036V109.429C168.571 107.062 166.652 105.143 164.285 105.143C161.918 105.143 160 107.062 160 109.429V219.143C160 219.239 160.008 219.334 160.014 219.428H131.985C131.992 219.334 132 219.239 132 219.143V109.429C132 107.062 130.081 105.143 127.714 105.143C125.347 105.143 123.428 107.062 123.428 109.429V217.036C119.923 214.671 117.531 210.76 117.265 206.251L111.551 109.106C110.987 99.5201 114.305 90.3933 120.893 83.4065ZM49.9998 40.5717C55.1986 40.5717 59.4283 44.8014 59.4283 50.0002C59.4283 55.1997 55.1986 59.4288 49.9998 59.4288C44.8009 59.4288 40.5712 55.1997 40.5712 50.0002C40.5712 44.8014 44.8009 40.5717 49.9998 40.5717ZM55.0489 67.2745C58.9609 66.1294 62.3226 63.6899 64.6409 60.4516L106.525 89.7705C103.82 95.9184 102.586 102.665 102.995 109.609L103.345 115.57L55.0489 67.2745ZM107.743 190.319L108.709 206.754C108.946 210.77 110.231 214.491 112.283 217.662L67.9877 241.512C67.8974 238.134 66.8723 234.986 65.1609 232.315C65.7386 232.108 66.282 231.779 66.7449 231.316L107.743 190.319ZM49.9998 251.428C44.8009 251.428 40.5712 247.199 40.5712 242C40.5712 236.801 44.8009 232.571 49.9998 232.571C55.1986 232.571 59.4283 236.801 59.4283 242C59.4283 247.199 55.1986 251.428 49.9998 251.428ZM241.999 251.428C236.801 251.428 232.571 247.199 232.571 242C232.571 236.801 236.801 232.571 241.999 232.571C247.198 232.571 251.428 236.801 251.428 242C251.428 247.199 247.198 251.428 241.999 251.428Z" fill="url(#paint0_linear)"/>
<defs>
<linearGradient id="paint0_linear" x1="146" y1="0.000488281" x2="146" y2="292" gradientUnits="userSpaceOnUse">
<stop offset="0.198895" stop-color="#00BBC9"/>
<stop offset="1" stop-color="#0365C0"/>
</linearGradient>
</defs>
</svg>
