<svg viewBox="0 0 243 292" fill="none" xmlns="http://www.w3.org/2000/svg">
<path fill-rule="evenodd" clip-rule="evenodd" d="M236.352 0C233.202 0 230.649 2.55304 230.649 5.70312V23.2157H210.376V5.70312C210.376 2.55304 207.821 0 204.673 0C201.523 0 198.97 2.55304 198.97 5.70312V56.6681H147.094V17.1094C147.094 7.67471 139.419 0 129.985 0H112.162C102.73 0 95.053 7.67471 95.053 17.1094V56.6681H43.1791V5.70312C43.1791 2.55304 40.626 0 37.476 0C34.3259 0 31.7728 2.55304 31.7728 5.70312V23.2157H11.5V5.70312C11.5 2.55304 8.94696 0 5.79688 0C2.64679 0 0.09375 2.55304 0.09375 5.70312V286.297C0.09375 289.447 2.64679 292 5.79688 292C8.94696 292 11.5 289.447 11.5 286.297V268.784H31.7728V286.297C31.7728 289.447 34.3259 292 37.476 292C40.626 292 43.1791 289.447 43.1791 286.297V235.332H98.261C101.411 235.332 103.964 232.779 103.964 229.629C103.964 226.479 101.411 223.926 98.261 223.926H43.1791V68.0744H95.053V169.456C95.053 169.514 95.0597 169.57 95.0619 169.628C95.0641 169.699 95.0686 169.77 95.0731 169.842C95.0842 170.027 95.1065 170.207 95.1354 170.385C95.1443 170.432 95.1488 170.479 95.1577 170.526C95.2023 170.757 95.2602 170.987 95.3315 171.21C95.3404 171.234 95.3493 171.256 95.3582 171.281C95.425 171.481 95.5052 171.675 95.5921 171.865C95.6144 171.914 95.6389 171.96 95.6612 172.009C95.7659 172.212 95.8751 172.41 95.9998 172.6C96.0043 172.606 96.0087 172.613 96.0132 172.62L96.0199 172.631C96.0266 172.64 96.031 172.647 96.0355 172.653L116.331 203.096C117.387 204.682 119.169 205.636 121.076 205.636C122.98 205.636 124.763 204.682 125.819 203.096L146.114 172.653C146.118 172.647 146.125 172.64 146.129 172.631L146.136 172.62C146.141 172.613 146.145 172.606 146.147 172.6C146.272 172.41 146.383 172.212 146.486 172.009C146.51 171.96 146.533 171.914 146.555 171.865C146.644 171.675 146.722 171.481 146.791 171.281C146.8 171.256 146.809 171.234 146.818 171.21C146.889 170.987 146.947 170.757 146.992 170.526C147 170.479 147.005 170.432 147.012 170.385C147.041 170.207 147.063 170.027 147.076 169.842C147.081 169.77 147.083 169.699 147.085 169.628C147.087 169.57 147.094 169.514 147.094 169.456V68.0744H198.97V223.926H143.886C140.736 223.926 138.183 226.479 138.183 229.629C138.183 232.779 140.736 235.332 143.886 235.332H198.97V286.297C198.97 289.447 201.523 292 204.673 292C207.821 292 210.376 289.447 210.376 286.297V268.784H230.649V286.297C230.649 289.447 233.202 292 236.352 292C239.5 292 242.056 289.447 242.056 286.297V5.70312C242.056 2.55304 239.5 0 236.352 0ZM11.5 223.926V201.882H31.7728V223.926H11.5ZM31.7728 90.1205H11.5V68.0744H31.7728V90.1205ZM31.7728 123.571H11.5V101.525H31.7728V123.571ZM31.7728 157.023H11.5V134.977H31.7728V157.023ZM31.7728 190.473H11.5V168.429H31.7728V190.473ZM31.7728 34.622V56.6681H11.5V34.622H31.7728ZM11.5 257.378V235.332H31.7728V257.378H11.5ZM106.459 45.5559H135.688V163.753H106.459V45.5559ZM106.459 17.1094C106.459 13.9637 109.019 11.4062 112.162 11.4062H129.985C133.13 11.4062 135.688 13.9637 135.688 17.1094V34.1497H106.459V17.1094ZM121.074 189.651L111.414 175.159H130.735L121.074 189.651ZM230.649 68.0744V90.1205H210.376V68.0744H230.649ZM230.649 123.571H210.376V101.525H230.649V123.571ZM230.649 157.023H210.376V134.977H230.649V157.023ZM230.649 190.473H210.376V168.429H230.649V190.473ZM210.376 201.879H230.649V223.926H210.376V201.879ZM230.649 34.622V56.6681H210.376V34.622H230.649ZM210.376 257.378V235.332H230.649V257.378H210.376Z" fill="url(#paint0_linear)"/>
<defs>
<linearGradient id="paint0_linear" x1="121.075" y1="0" x2="121.075" y2="292" gradientUnits="userSpaceOnUse">
<stop offset="0.331492" stop-color="#00BBC9"/>
<stop offset="1" stop-color="#0365C0"/>
</linearGradient>
</defs>
</svg>
