<svg width="119" height="30" viewBox="0 0 119 30" fill="none" xmlns="http://www.w3.org/2000/svg">
<path d="M9.12728 12.8429C10.1387 12.9177 11.0021 13.0175 11.7668 13.192C12.5315 13.3666 13.1482 13.6409 13.6416 14.0399C14.135 14.4389 14.505 14.9626 14.7517 15.611C14.9983 16.2593 15.1217 17.0823 15.1217 18.1047C15.1217 19.0773 14.9983 19.9252 14.801 20.6733C14.579 21.4214 14.209 22.0449 13.6663 22.5436C13.1235 23.0424 12.4328 23.4414 11.5694 23.7157C10.7061 23.99 9.62065 24.1147 8.33789 24.1147C7.4745 24.1147 6.58644 24.0648 5.69838 23.9401C4.81032 23.8155 3.9716 23.6658 3.18221 23.5162C2.39283 23.3666 1.72678 23.192 1.15941 23.0175C0.59204 22.8429 0.197347 22.7431 -2.35255e-08 22.6683L0.74005 18.7531C2.4915 19.0274 3.9716 19.2269 5.15568 19.3766C6.33976 19.5262 7.27716 19.5761 7.99254 19.5511C8.68325 19.5262 9.20129 19.4264 9.4973 19.2768C9.79333 19.1022 9.94134 18.8529 9.94134 18.4788V17.581L5.08168 17.3067C4.41563 17.2569 3.77425 17.1571 3.18221 17.0324C2.59017 16.8828 2.07214 16.6334 1.62811 16.2344C1.18408 15.8603 0.838723 15.3117 0.567372 14.6135C0.246683 13.8653 0.0986733 12.9177 0.0986733 11.7456C0.0986733 10.6983 0.271352 9.8005 0.59204 9.10224C0.912728 8.40399 1.38143 7.83042 1.99813 7.38155C2.59017 6.93267 3.33022 6.63342 4.16895 6.43391C5.03234 6.23441 5.96973 6.1596 7.0058 6.1596C7.69652 6.1596 8.38723 6.20948 9.10261 6.28429C9.81799 6.3591 10.484 6.45885 11.1007 6.5586C11.7175 6.68329 12.2602 6.78304 12.7535 6.88279C13.2222 7.00748 13.5922 7.10723 13.8389 7.18204L13.2716 11.2219C11.8161 10.9975 10.558 10.8229 9.54664 10.7232C8.53524 10.6234 7.72119 10.5736 7.07981 10.5985C6.43843 10.6234 5.9944 10.7232 5.72305 10.8978C5.4517 11.0723 5.30369 11.3466 5.30369 11.6958V12.5935C5.84639 12.6185 6.33976 12.6434 6.83313 12.6683L8.09121 12.7431C8.55991 12.793 8.8806 12.818 9.12728 12.8429ZM28.2206 6.20948C29.084 6.20948 29.898 6.33416 30.6381 6.5586C31.3781 6.78304 32.0195 7.15711 32.5622 7.6808C33.1049 8.20449 33.5489 8.87781 33.8696 9.70075C34.1903 10.5237 34.363 11.5461 34.363 12.7681C34.363 14.813 34.215 16.5337 33.9436 17.9551C33.6723 19.3766 33.2036 20.5237 32.5869 21.3965C31.9455 22.2943 31.1314 22.9177 30.0954 23.3167C29.0593 23.7157 27.8012 23.9152 26.2718 23.9152C26.0004 23.9152 25.7044 23.9152 25.3837 23.8903C25.0384 23.8653 24.7177 23.8404 24.397 23.8155C24.0763 23.7905 23.7803 23.7656 23.5089 23.7406C23.2376 23.7157 23.0402 23.6908 22.9169 23.6658V30H17.8352V6.73317H22.3002L22.6702 7.80549C22.9662 7.63092 23.3116 7.43142 23.7556 7.25686C24.1996 7.05736 24.6437 6.88279 25.1617 6.73317C25.6551 6.58354 26.1731 6.45885 26.7158 6.33416C27.2092 6.25935 27.7272 6.20948 28.2206 6.20948ZM22.8922 19.6259C23.1882 19.7007 23.5583 19.7506 24.0269 19.8005C24.4956 19.8504 24.989 19.8753 25.5317 19.8753C26.0744 19.8753 26.5925 19.8504 27.1352 19.8005C27.6779 19.7506 28.1466 19.6259 28.5413 19.4763C28.6646 19.1521 28.7879 18.7531 28.8866 18.3541C28.9853 17.9302 29.0593 17.5062 29.1086 17.0574C29.158 16.6085 29.2073 16.1596 29.232 15.7107C29.2566 15.2618 29.2813 14.8379 29.2813 14.4389C29.2813 13.9651 29.2566 13.5162 29.2073 13.0923C29.158 12.6683 29.0346 12.2943 28.8866 11.9701C28.7386 11.6459 28.5166 11.3965 28.2206 11.197C27.9245 10.9975 27.5545 10.9227 27.0612 10.9227C26.1238 10.9227 25.3344 10.9975 24.6437 11.1471C23.9776 11.2968 23.3856 11.4713 22.8922 11.6459V19.6259ZM42.8489 19.2269C43.0462 19.1771 43.2929 19.1272 43.5396 19.0524C43.7863 19.0025 44.0823 18.9526 44.4277 18.8529C44.773 18.7531 45.1677 18.6284 45.6364 18.4788L46.6725 23.0175C46.5491 23.0923 46.3271 23.1671 46.0311 23.2668C45.7351 23.3666 45.3897 23.4663 44.9704 23.5661C44.5757 23.6658 44.1316 23.7406 43.6383 23.8155C43.1449 23.8903 42.6515 23.9152 42.1828 23.9152C39.0746 23.9152 37.5205 22.1696 37.5205 18.7032V-2.37824e-08H42.6269V17.9551C42.6269 18.3292 42.6515 18.6284 42.7255 18.8529C42.7502 19.0025 42.7995 19.1272 42.8489 19.2269ZM52.6669 16.9077C52.7162 17.3815 52.8396 17.7806 53.0616 18.1297C53.2836 18.4788 53.5796 18.7282 53.925 18.9277C54.2703 19.1272 54.665 19.2768 55.109 19.3766C55.5531 19.4763 55.9971 19.5012 56.4658 19.5012C56.9345 19.5012 57.4525 19.4763 58.0446 19.4264C58.6366 19.3766 59.2286 19.3267 59.87 19.2768C60.4867 19.2269 61.0788 19.1521 61.6461 19.0773C62.2135 19.0025 62.7069 18.9277 63.1509 18.8529L63.7923 22.394C63.2003 22.6683 62.5342 22.8928 61.8188 23.1172C61.1034 23.3416 60.3881 23.5162 59.6727 23.6658C58.9573 23.8155 58.2419 23.9152 57.5759 23.99C56.9098 24.0648 56.3178 24.1147 55.8244 24.1147C54.591 24.1147 53.4563 23.9651 52.4202 23.6908C51.4088 23.4165 50.5207 22.9426 49.7807 22.2693C49.0406 21.596 48.4733 20.6983 48.0786 19.601C47.6839 18.4788 47.4865 17.1072 47.4865 15.4364C47.4865 13.6908 47.7332 12.2195 48.2019 11.0474C48.6706 9.87531 49.312 8.92768 50.126 8.20449C50.9401 7.4813 51.8775 6.98254 52.9136 6.68329C53.9743 6.38404 55.0844 6.23441 56.2191 6.23441C57.4279 6.23441 58.4886 6.40898 59.4753 6.7581C60.4374 7.10723 61.2514 7.58105 61.9422 8.20449C62.6082 8.82793 63.1509 9.55112 63.4963 10.399C63.8663 11.2469 64.039 12.1945 64.039 13.217C64.039 14.0399 63.965 14.813 63.817 15.5112C63.6689 16.2095 63.5703 16.6833 63.4963 16.9077H52.6669ZM59.278 13.8404C59.3027 13.0424 59.13 12.419 58.7846 11.9701C58.4393 11.5212 57.9952 11.2219 57.4525 11.0723C56.9098 10.8978 56.2931 10.8479 55.5777 10.8978C54.887 10.9476 54.1963 11.0474 53.5303 11.197C52.9876 11.8703 52.6915 12.7681 52.6422 13.8653H59.278V13.8404ZM84.0203 23.5661H78.9633V13.6409C78.9633 12.1446 78.2479 11.3965 76.7925 11.3965C75.8551 11.3965 75.0657 11.4713 74.375 11.6209C73.709 11.7706 73.1169 11.9451 72.6236 12.1197V23.5661H67.5665V6.73317H72.0315L72.4015 7.80549C72.6976 7.63092 73.0429 7.43142 73.4623 7.25686C73.8816 7.05736 74.3257 6.88279 74.819 6.73317C75.2877 6.58354 75.7811 6.45885 76.2991 6.33416C76.8172 6.25935 77.3105 6.20948 77.8039 6.20948C78.692 6.20948 79.506 6.33416 80.2707 6.60848C81.0354 6.85786 81.6768 7.2818 82.2442 7.85536C82.8116 8.42893 83.2309 9.17706 83.5516 10.0998C83.8723 11.0224 84.045 12.1696 84.045 13.5411V23.5661H84.0203ZM93.0983 17.98C93.0983 18.3541 93.1229 18.6534 93.1969 18.8778C93.2216 19.0025 93.2463 19.1272 93.2956 19.2519C93.493 19.202 93.7643 19.1521 94.1097 19.0773C94.455 19.0025 94.825 18.9027 95.2197 18.803C95.6144 18.7032 96.0091 18.5786 96.4285 18.4788C96.8478 18.3541 97.2179 18.2294 97.5386 18.1297L98.3773 22.6434C98.2539 22.7182 97.9579 22.818 97.5386 22.9676C97.1192 23.1172 96.6258 23.2668 96.0585 23.4165C95.4911 23.5661 94.899 23.6908 94.307 23.8155C93.715 23.9152 93.1723 23.99 92.6789 23.99C91.1495 23.99 89.99 23.5661 89.2253 22.7182C88.4359 21.8703 88.0659 20.5736 88.0659 18.803V1.09726H93.0983V6.7581H97.9333V11.3716H93.0983V17.98ZM109.947 6.20948C111.427 6.20948 112.734 6.38404 113.869 6.70823C115.004 7.03242 115.941 7.55611 116.706 8.25436C117.471 8.95262 118.038 9.87531 118.433 11.0224C118.803 12.1696 119 13.5411 119 15.1621C119 18.2793 118.235 20.5486 116.731 21.9701C115.201 23.3915 112.956 24.1147 109.947 24.1147C106.962 24.1147 104.717 23.3915 103.188 21.9701C101.658 20.5486 100.893 18.2793 100.893 15.1621C100.893 13.5411 101.091 12.1696 101.485 11.0224C101.88 9.87531 102.448 8.95262 103.212 8.25436C103.977 7.55611 104.914 7.03242 106.049 6.70823C107.135 6.3591 108.442 6.20948 109.947 6.20948ZM109.947 19.6758C111.402 19.6758 112.438 19.3267 113.03 18.6035C113.622 17.9052 113.918 16.7581 113.918 15.1621C113.918 13.5661 113.622 12.419 113.03 11.7207C112.438 11.0224 111.427 10.6484 109.947 10.6484C108.467 10.6484 107.431 10.9975 106.839 11.7207C106.271 12.419 105.975 13.5661 105.975 15.1621C105.975 16.7581 106.271 17.9052 106.839 18.6035C107.431 19.3267 108.442 19.6758 109.947 19.6758Z" fill="white"/>
</svg>
