<svg width="47" height="50" viewBox="0 0 47 50" fill="none" xmlns="http://www.w3.org/2000/svg">
<path d="M4.292 26.2133C4.54111 26.9966 4.97654 27.7079 5.56093 28.286C6.14532 28.8641 6.86123 29.2918 7.64724 29.5324C8.17545 29.6945 8.6366 30.0241 8.96107 30.4713C9.28555 30.9185 9.45575 31.4591 9.44598 32.0115C9.43551 32.6909 9.56098 33.3655 9.81501 33.9957C10.069 34.6259 10.4465 35.1989 10.9252 35.6812C11.6064 36.3608 12.4625 36.8386 13.3986 37.0614C14.3347 37.2843 15.3142 37.2436 16.2286 36.9439C16.7543 36.7667 17.3229 36.7622 17.8514 36.931C18.3799 37.0997 18.8406 37.4329 19.1664 37.8819C19.6378 38.5562 20.2659 39.1059 20.9967 39.4838C21.7274 39.8618 22.539 40.0567 23.3617 40.0517C24.1834 40.0506 24.9928 39.8531 25.7226 39.4757C26.4524 39.0982 27.0814 38.5518 27.5571 37.8819C27.8772 37.4332 28.3328 37.0989 28.8569 36.9282C29.3811 36.7576 29.9461 36.7594 30.4691 36.9336C31.3835 37.2333 32.363 37.274 33.2991 37.0511C34.2352 36.8282 35.0913 36.3505 35.7725 35.6708C36.2512 35.1886 36.6287 34.6156 36.8827 33.9854C37.1367 33.3552 37.2622 32.6806 37.2517 32.0012C37.242 31.4488 37.4122 30.9082 37.7366 30.461C38.0611 30.0137 38.5223 29.6842 39.0505 29.5221C39.8373 29.2806 40.5548 28.8542 41.143 28.2785C41.7313 27.7029 42.1731 26.9947 42.4315 26.2133C42.6873 25.4358 42.7515 24.6081 42.6187 23.8005C42.4859 22.9929 42.16 22.2293 41.6687 21.5747C41.3367 21.1334 41.1572 20.5962 41.1572 20.044C41.1572 19.4917 41.3367 18.9545 41.6687 18.5132C42.1567 17.8544 42.4804 17.0887 42.6131 16.2797C42.7458 15.4706 42.6835 14.6416 42.4315 13.8615C42.1796 13.0813 41.7451 12.3725 41.1642 11.794C40.5834 11.2154 39.8729 10.7837 39.0917 10.5349C38.5635 10.3728 38.1023 10.0433 37.7779 9.59605C37.4534 9.14884 37.2832 8.60823 37.293 8.05579C37.2987 7.37263 37.1671 6.69529 36.9059 6.064C36.6447 5.43272 36.2593 4.86038 35.7725 4.381C35.0914 3.69952 34.2347 3.22024 33.2975 2.99641C32.3604 2.77259 31.3795 2.81299 30.4639 3.11312C29.9413 3.28114 29.3789 3.27993 28.8569 3.10965C28.335 2.93937 27.8801 2.60871 27.5571 2.16479C27.0808 1.49585 26.4516 0.950397 25.7218 0.573865C24.9921 0.197333 24.1829 0.000620846 23.3617 0.000114505C22.5395 -0.00540482 21.7282 0.188683 20.9974 0.565719C20.2667 0.942755 19.6384 1.49148 19.1664 2.16479C18.843 2.60976 18.3873 2.94109 17.8643 3.11142C17.3412 3.28174 16.7778 3.28234 16.2544 3.11312C15.7218 2.93061 15.1629 2.8366 14.6 2.83481C13.9189 2.83832 13.2453 2.97677 12.6181 3.24216C11.9909 3.50756 11.4225 3.89463 10.9458 4.381C10.4671 4.86321 10.0896 5.43625 9.83562 6.06645C9.5816 6.69664 9.45613 7.37126 9.4666 8.05064C9.47637 8.60307 9.30617 9.14369 8.98169 9.59089C8.65721 10.0381 8.19606 10.3676 7.66786 10.5297C6.87918 10.7665 6.15985 11.1913 5.57178 11.7677C4.98371 12.3441 4.54451 13.0548 4.292 13.8386C4.04222 14.6168 3.98112 15.4433 4.11375 16.2499C4.24638 17.0564 4.56893 17.8199 5.05479 18.4771C5.38208 18.9204 5.55868 19.4569 5.55868 20.0079C5.55868 20.5589 5.38208 21.0954 5.05479 21.5386C4.56316 22.2001 4.23731 22.9698 4.10459 23.7831C3.97187 24.5965 4.03613 25.4299 4.292 26.2133ZM7.12669 16.9361C6.88495 16.6065 6.72507 16.2242 6.66026 15.8206C6.59545 15.4171 6.62755 15.0039 6.75393 14.6152C6.88031 14.2265 7.09733 13.8734 7.38708 13.5851C7.67683 13.2969 8.031 13.0816 8.42034 12.9572C9.4782 12.6324 10.402 11.9728 11.0526 11.0777C11.7033 10.1826 12.0456 9.10041 12.0281 7.99395C12.0225 7.6552 12.0849 7.31877 12.2114 7.00451C12.338 6.69026 12.5263 6.40456 12.7651 6.16428C13.0061 5.92389 13.2923 5.73363 13.6073 5.60448C13.9222 5.47532 14.2596 5.40983 14.6 5.4118C14.8806 5.41298 15.1591 5.45998 15.4246 5.55096C16.4728 5.90468 17.607 5.91175 18.6595 5.57112C19.712 5.23048 20.627 4.56023 21.2692 3.65944C21.5079 3.32742 21.8221 3.05696 22.186 2.87039C22.5498 2.68383 22.9528 2.58653 23.3617 2.58653C23.7706 2.58653 24.1737 2.68383 24.5375 2.87039C24.9014 3.05696 25.2156 3.32742 25.4543 3.65944C25.9305 4.32838 26.5598 4.87383 27.2895 5.25037C28.0193 5.6269 28.8284 5.82361 29.6496 5.82412C30.2086 5.82508 30.764 5.73455 31.2937 5.55611C31.7504 5.40377 32.2407 5.38241 32.7089 5.49445C33.1771 5.6065 33.6046 5.84747 33.9429 6.19005C34.1771 6.42708 34.3622 6.70795 34.4878 7.01659C34.6134 7.32523 34.6769 7.65559 34.6747 7.98879C34.6581 9.09506 35.0008 10.1769 35.6513 11.0718C36.3018 11.9668 37.2251 12.6265 38.2825 12.9521C38.6719 13.0765 39.026 13.2917 39.3158 13.58C39.6055 13.8683 39.8226 14.2213 39.9489 14.61C40.0753 14.9987 40.1074 15.4119 40.0426 15.8155C39.9778 16.219 39.8179 16.6014 39.5762 16.931C38.9109 17.8159 38.5512 18.893 38.5512 20.0002C38.5512 21.1073 38.9109 22.1844 39.5762 23.0693C39.8201 23.3991 39.9818 23.7823 40.0478 24.1871C40.1138 24.5919 40.0822 25.0066 39.9557 25.3968C39.8292 25.7869 39.6114 26.1412 39.3203 26.4303C39.0293 26.7193 38.6735 26.9347 38.2825 27.0585C37.2247 27.3833 36.3009 28.0429 35.6503 28.938C34.9996 29.8331 34.6573 30.9154 34.6747 32.0218C34.6797 32.3597 34.617 32.6952 34.4904 33.0085C34.3639 33.3218 34.1759 33.6067 33.9377 33.8463C33.5994 34.1889 33.172 34.4299 32.7037 34.5419C32.2355 34.654 31.7453 34.6326 31.2886 34.4803C30.2405 34.1283 29.1071 34.1227 28.0556 34.4642C27.0041 34.8057 26.0903 35.4763 25.4491 36.3769C25.2105 36.709 24.8962 36.9794 24.5324 37.166C24.1685 37.3526 23.7655 37.4499 23.3566 37.4499C22.9477 37.4499 22.5447 37.3526 22.1808 37.166C21.817 36.9794 21.5027 36.709 21.2641 36.3769C20.6229 35.4763 19.7091 34.8057 18.6576 34.4642C17.6061 34.1227 16.4726 34.1283 15.4246 34.4803C14.9679 34.6326 14.4776 34.654 14.0094 34.5419C13.5412 34.4299 13.1137 34.1889 12.7755 33.8463C12.5372 33.6067 12.3493 33.3218 12.2228 33.0085C12.0962 32.6952 12.0335 32.3597 12.0384 32.0218C12.0559 30.9154 11.7136 29.8331 11.0629 28.938C10.4123 28.0429 9.48851 27.3833 8.43065 27.0585C8.04131 26.9341 7.68714 26.7189 7.39739 26.4306C7.10764 26.1424 6.89062 25.7893 6.76424 25.4006C6.63786 25.0119 6.60575 24.5987 6.67057 24.1951C6.73538 23.7916 6.89526 23.4092 7.137 23.0797C7.79931 22.1969 8.15821 21.1235 8.16007 20.0199C8.16193 18.9163 7.80665 17.8417 7.14731 16.9567L7.12669 16.9361ZM0.426508 43.7935C0.153836 43.3876 0.00565214 42.911 0.000158495 42.422C-0.00533515 41.9331 0.132101 41.4532 0.395584 41.0413L4.92594 33.8257C5.0128 33.676 5.12893 33.5454 5.26739 33.4416C5.40585 33.3378 5.56381 33.2629 5.73183 33.2215C5.89985 33.18 6.0745 33.1729 6.24536 33.2004C6.41621 33.2279 6.57977 33.2896 6.72626 33.3817C6.87276 33.4739 6.9992 33.5945 7.09804 33.7366C7.19688 33.8787 7.26608 34.0392 7.30153 34.2086C7.33698 34.3779 7.33794 34.5527 7.30436 34.7225C7.27078 34.8923 7.20334 35.0535 7.10607 35.1967L2.63757 42.3556L6.71437 41.6959C7.29907 41.5946 7.90058 41.712 8.40431 42.0257C8.90804 42.3393 9.27881 42.8273 9.44598 43.3967L10.6108 47.3601L15.1721 40.1136C15.2518 39.9506 15.365 39.8063 15.5043 39.6901C15.6436 39.5739 15.8059 39.4885 15.9805 39.4393C16.1552 39.3902 16.3382 39.3785 16.5177 39.405C16.6971 39.4315 16.869 39.4955 17.022 39.593C17.175 39.6905 17.3056 39.8192 17.4055 39.9707C17.5053 40.1222 17.572 40.293 17.6012 40.4721C17.6304 40.6511 17.6215 40.8343 17.5751 41.0097C17.5286 41.185 17.4456 41.3486 17.3316 41.4897L12.7239 48.8083C12.4989 49.1715 12.1847 49.4711 11.8112 49.6786C11.4377 49.886 11.0174 49.9945 10.5902 49.9938C10.47 50.0021 10.3495 50.0021 10.2294 49.9938C9.74858 49.9255 9.29789 49.7193 8.93196 49.4C8.56604 49.0807 8.30059 48.6622 8.16779 48.195L7.01846 44.2832L2.99319 44.9377C2.50451 45.0236 2.00134 44.9626 1.54726 44.7627C1.09318 44.5627 0.708551 44.2326 0.44197 43.8141L0.426508 43.7935ZM41.7821 33.8618L46.3124 41.0774C46.5752 41.4922 46.7119 41.9745 46.7059 42.4655C46.6999 42.9566 46.5514 43.4353 46.2785 43.8436C46.0056 44.2518 45.62 44.5721 45.1685 44.7654C44.7171 44.9587 44.2192 45.0168 43.7354 44.9326L39.7102 44.278L38.5815 48.1899C38.4487 48.657 38.1832 49.0756 37.8173 49.3948C37.4514 49.7141 37.0007 49.9204 36.5199 49.9886C36.3997 49.9969 36.2792 49.9969 36.1591 49.9886C35.7319 49.9894 35.3115 49.8809 34.938 49.6734C34.5646 49.4659 34.2504 49.1664 34.0253 48.8032L29.3919 41.4897C29.2243 41.201 29.1754 40.8585 29.2553 40.5344C29.3352 40.2103 29.5378 39.9299 29.8204 39.7522C30.103 39.5745 30.4435 39.5134 30.7702 39.5818C31.097 39.6501 31.3844 39.8426 31.572 40.1187L36.1333 47.3652L37.2775 43.3967C37.4443 42.8324 37.8111 42.3484 38.3092 42.0353C38.8074 41.7221 39.4026 41.6015 39.9833 41.6959L44.0601 42.3607L39.5762 35.2379C39.4086 34.9492 39.3596 34.6067 39.4396 34.2826C39.5195 33.9585 39.7221 33.6781 40.0047 33.5004C40.2873 33.3227 40.6278 33.2616 40.9545 33.33C41.2812 33.3983 41.5687 33.5909 41.7563 33.867L41.7821 33.8618ZM21.1661 31.2848C21.8979 31.4283 22.6418 31.5008 23.3875 31.5013C26.3445 31.5015 29.1882 30.364 31.3294 28.3246C33.4706 26.2852 34.745 23.5002 34.8887 20.5467C35.0324 17.5932 34.0342 14.6976 32.1011 12.46C30.168 10.2224 27.4481 8.81434 24.505 8.52755C21.562 8.24075 18.6214 9.09724 16.2926 10.9195C13.9639 12.7418 12.4255 15.3902 11.9963 18.3159C11.567 21.2415 12.2798 24.2202 13.987 26.6346C15.6941 29.049 18.2647 30.7141 21.1661 31.2848ZM14.6257 18.2968C15.0266 16.2746 16.1165 14.4542 17.7096 13.1459C19.3027 11.8376 21.3003 11.1224 23.3617 11.1224C23.9397 11.1236 24.5162 11.1806 25.0832 11.2925C26.8103 11.6338 28.3974 12.4797 29.6437 13.7231C30.8901 14.9665 31.7398 16.5515 32.0852 18.2778C32.4307 20.0041 32.2565 21.7941 31.5846 23.4214C30.9128 25.0487 29.7734 26.4401 28.3107 27.4199C26.848 28.3996 25.1275 28.9235 23.367 28.9254C21.6065 28.9274 19.8849 28.4071 18.4201 27.4306C16.9552 26.454 15.8129 25.065 15.1375 23.4392C14.4621 21.8134 14.284 20.0238 14.6257 18.2968ZM19.1303 20.982C18.8884 20.74 18.7525 20.4119 18.7525 20.0697C18.7525 19.7276 18.8884 19.3994 19.1303 19.1575C19.3723 18.9155 19.7004 18.7796 20.0426 18.7796C20.3847 18.7796 20.7129 18.9155 20.9548 19.1575L22.2124 20.415L25.7738 16.8588C26.0158 16.6169 26.3439 16.4809 26.6861 16.4809C27.0282 16.4809 27.3564 16.6169 27.5983 16.8588C27.8403 17.1007 27.9762 17.4289 27.9762 17.7711C27.9762 18.1132 27.8403 18.4414 27.5983 18.6833L23.1298 23.1518C23.0101 23.2718 22.8679 23.367 22.7114 23.432C22.5549 23.4969 22.387 23.5304 22.2176 23.5304C22.0481 23.5304 21.8803 23.4969 21.7237 23.432C21.5672 23.367 21.425 23.2718 21.3053 23.1518L19.1303 20.982Z" fill="#00BBC9"/>
</svg>
