<svg width="50" height="50" viewBox="0 0 50 50" fill="none" xmlns="http://www.w3.org/2000/svg">
<path d="M38.3125 22.0772C38.3125 20.4943 37.0248 19.2067 35.4419 19.2067H30.1663C31.448 17.766 32.2857 16.1254 32.4475 14.6537C32.5464 13.7547 32.2686 12.8624 31.6853 12.2055C31.1522 11.605 30.4232 11.2704 29.6326 11.263C29.6234 11.2629 29.6142 11.2629 29.6052 11.2629C28.8404 11.2629 28.1226 11.5575 27.5809 12.0942C27.0391 12.631 26.7393 13.3461 26.7358 14.1093C26.708 14.2764 26.414 14.8525 25.6948 15.5365C25.1059 16.0966 24.0888 16.8666 22.5869 17.3542C21.998 17.5455 21.4599 17.8975 20.9874 18.4006C20.7394 18.6645 20.3682 19.0289 19.9085 19.3948C19.6829 19.2752 19.4264 19.2069 19.1538 19.2069H14.1434C13.2512 19.2069 12.5254 19.9327 12.5254 20.8248V34.186C12.5254 35.0781 13.2512 35.8039 14.1434 35.8039H19.1538C19.762 35.8039 20.2924 35.4662 20.5687 34.9689H33.3542C34.7068 34.9689 35.8072 33.8685 35.8072 32.5158C35.8072 32.0611 35.6829 31.6349 35.4663 31.2693C36.1711 30.8378 36.6423 30.0607 36.6423 29.1755C36.6423 28.7207 36.5179 28.2946 36.3013 27.9289C37.0061 27.4975 37.4773 26.7203 37.4773 25.8352C37.4773 25.3233 37.3197 24.8475 37.0505 24.4537C37.8115 23.9369 38.3125 23.0644 38.3125 22.0772ZM35.4419 23.382H35.0243C34.592 23.382 34.2414 23.7325 34.2414 24.1649C34.2414 24.5972 34.5919 24.9478 35.0243 24.9478C35.5135 24.9478 35.9116 25.3458 35.9116 25.8351C35.9116 26.3243 35.5135 26.7224 35.0243 26.7224H34.1892C33.7569 26.7224 33.4063 27.0729 33.4063 27.5053C33.4063 27.9376 33.7568 28.2882 34.1892 28.2882C34.6785 28.2882 35.0765 28.6863 35.0765 29.1755C35.0765 29.6648 34.6785 30.0628 34.1892 30.0628H33.3542C32.9219 30.0628 32.5713 30.4133 32.5713 30.8457C32.5713 31.2781 32.9218 31.6286 33.3542 31.6286C33.8434 31.6286 34.2415 32.0267 34.2415 32.5159C34.2415 33.0052 33.8434 33.4032 33.3542 33.4032H20.7718V25.8354C20.7718 25.4031 20.4213 25.0525 19.9889 25.0525C19.5564 25.0525 19.2059 25.403 19.2059 25.8354V34.1861C19.2059 34.2149 19.1826 34.2382 19.1538 34.2382H14.1434C14.1145 34.2382 14.0912 34.2149 14.0912 34.1861V20.8245C14.0912 20.7957 14.1145 20.7724 14.1434 20.7724H19.1538C19.1826 20.7724 19.2059 20.7957 19.2059 20.8245V22.4948C19.2059 22.9271 19.5564 23.2777 19.9889 23.2777C20.4213 23.2777 20.7718 22.9272 20.7718 22.4948V20.8245C20.7718 20.7866 20.7686 20.7494 20.766 20.712C21.353 20.2577 21.8224 19.7983 22.1287 19.4723C22.4184 19.1636 22.7352 18.9521 23.0703 18.8434C24.9131 18.2452 26.1532 17.2819 26.8689 16.5791C27.766 15.6984 28.3014 14.7802 28.3014 14.1229C28.3014 13.7756 28.4369 13.4501 28.6829 13.2064C28.9319 12.9596 29.2617 12.8292 29.618 12.8288C30.0569 12.8329 30.3475 13.0574 30.5142 13.2451C30.8 13.5668 30.9406 14.0295 30.8909 14.4826C30.7199 16.0381 29.4759 17.961 27.7216 19.3811C27.4639 19.5898 27.3655 19.9382 27.4762 20.2508C27.5868 20.5634 27.8825 20.7724 28.2141 20.7724H35.4417C36.1612 20.7724 36.7465 21.3577 36.7465 22.0772C36.7465 22.7967 36.1613 23.382 35.4419 23.382Z" fill="#00BBC9"/>
<path d="M16.6503 30.8892C16.218 30.8892 15.8633 31.2438 15.8633 31.6762C15.8633 32.1085 16.218 32.4632 16.6503 32.4632C17.0826 32.4632 17.4373 32.1085 17.4373 31.6762C17.4374 31.2439 17.0827 30.8892 16.6503 30.8892Z" fill="#00BBC9"/>
<path d="M48.6045 24.9999L49.9494 21.4411C50.0473 21.1822 50.0011 20.8909 49.828 20.6747L47.4492 17.7056L47.6285 13.9053C47.6416 13.629 47.5076 13.366 47.2763 13.2141L44.0965 11.1253L43.0928 7.45562C43.0197 7.18863 42.8111 6.98003 42.5442 6.90708L38.8745 5.90337L36.7857 2.72359C36.6338 2.49225 36.3709 2.35885 36.0945 2.37145L32.2942 2.55074L29.3251 0.171936C29.1091 -0.00111074 28.8178 -0.0473021 28.5588 0.0505494L24.9999 1.39547L21.4412 0.050647C21.1821 -0.0473021 20.8909 -0.00111075 20.6749 0.172034L17.7058 2.55084L13.9055 2.37154C13.6277 2.35846 13.3661 2.49244 13.2143 2.72369L11.1256 5.90357L7.45588 6.90728C7.18889 6.98033 6.9803 7.18892 6.90735 7.45581L5.90364 11.1255L2.72376 13.2142C2.49241 13.3662 2.35852 13.629 2.37161 13.9054L2.55091 17.7057L0.1721 20.6748C-0.000946723 20.8909 -0.0471381 21.1822 0.0507134 21.4411L1.39554 24.9999L0.0506157 28.5587C-0.0473334 28.8176 -0.00114203 29.1089 0.172002 29.325L2.55081 32.2942L2.37151 36.0945C2.35843 36.3708 2.49241 36.6338 2.72366 36.7857L5.90354 38.8744L6.90725 42.5442C6.9803 42.8111 7.18889 43.0197 7.45578 43.0927L11.1255 44.0964L13.2142 47.2763C13.3661 47.5076 13.6295 47.6406 13.9054 47.6284L17.7057 47.4491L20.6748 49.8279C20.8908 50.0011 21.1822 50.0473 21.4411 49.9493L25 48.6044L28.5589 49.9493C28.6487 49.9832 28.7424 49.9998 28.8355 49.9998C29.0109 49.9998 29.1841 49.9409 29.3251 49.8279L32.2942 47.4491L36.0945 47.6284C36.3718 47.6407 36.6338 47.5075 36.7857 47.2763L38.8745 44.0964L42.5442 43.0927C42.8112 43.0196 43.0198 42.8111 43.0928 42.5442L44.0965 38.8744L47.2763 36.7857C47.5077 36.6337 47.6416 36.3708 47.6285 36.0945L47.4492 32.2942L49.828 29.325C50.001 29.109 50.0472 28.8177 49.9494 28.5587L48.6045 24.9999ZM47.0352 25.2767L48.3268 28.6946L46.0423 31.546C45.923 31.6948 45.8622 31.882 45.8712 32.0724L46.0434 35.7221L42.9896 37.728C42.8303 37.8326 42.7145 37.9919 42.6642 38.1759L41.7003 41.7002L38.176 42.6642C37.9921 42.7145 37.8329 42.8302 37.7281 42.9896L35.7222 46.0434L32.0725 45.8711C31.8819 45.8623 31.6948 45.923 31.5461 46.0422L28.6946 48.3268L25.2768 47.0352C25.1876 47.0015 25.0938 46.9847 25 46.9847C24.9062 46.9847 24.8124 47.0016 24.7232 47.0352L21.3054 48.3268L18.4539 46.0422C18.3052 45.923 18.1177 45.8623 17.9275 45.8711L14.2778 46.0434L12.2719 42.9896C12.1673 42.8303 12.008 42.7145 11.824 42.6642L8.29973 41.7002L7.33576 38.1759C7.28547 37.992 7.16975 37.8328 7.01037 37.728L3.95657 35.7221L4.12883 32.0724C4.13782 31.8819 4.07698 31.6948 3.95774 31.546L1.67317 28.6946L2.96487 25.2767C3.03225 25.0984 3.03225 24.9015 2.96487 24.7232L1.67317 21.3053L3.95774 18.4538C4.07698 18.3051 4.13782 18.1179 4.12883 17.9275L3.95657 14.2778L7.01037 12.2718C7.16965 12.1672 7.28547 12.008 7.33576 11.824L8.29973 8.29966L11.824 7.3357C12.0079 7.2854 12.1671 7.16968 12.2719 7.01031L14.2778 3.9565L17.9275 4.12877C18.1178 4.13765 18.3052 4.07691 18.4539 3.95767L21.3054 1.67311L24.7232 2.9648C24.9017 3.03219 25.0984 3.03219 25.2768 2.9648L28.6946 1.67311L31.5461 3.95767C31.6948 4.07701 31.8821 4.13775 32.0725 4.12877L35.7222 3.9565L37.7281 7.01031C37.8327 7.16958 37.992 7.2854 38.176 7.3357L41.7003 8.29966L42.6642 11.824C42.7145 12.0079 42.8302 12.167 42.9896 12.2718L46.0434 14.2778L45.8712 17.9275C45.8622 18.118 45.923 18.3051 46.0423 18.4538L48.3268 21.3053L47.0351 24.7232C46.9678 24.9016 46.9678 25.0984 47.0352 25.2767Z" fill="#00BBC9"/>
<path d="M39.7101 11.4817C39.5153 11.2696 39.3132 11.0587 39.1092 10.8548C38.9052 10.6509 38.6944 10.4487 38.4823 10.2539C38.1638 9.96153 37.6686 9.98263 37.3761 10.3012C37.0837 10.6196 37.1048 11.1149 37.4234 11.4073C37.619 11.587 37.8137 11.7735 38.002 11.9618C38.1902 12.15 38.3768 12.3448 38.5566 12.5405C38.711 12.7087 38.9219 12.794 39.1335 12.794C39.3227 12.794 39.5124 12.7258 39.6627 12.5878C39.9813 12.2955 40.0025 11.8002 39.7101 11.4817Z" fill="#00BBC9"/>
<path d="M35.7016 8.1176C31.9262 5.71233 27.3807 4.64338 22.9029 5.10696C18.3594 5.57766 14.0753 7.61887 10.8393 10.8547C7.27811 14.4159 5.20468 19.1468 5.00096 24.1758C4.79852 29.1752 6.45438 34.0291 9.66365 37.8432C9.81844 38.0271 10.0399 38.122 10.2632 38.122C10.4411 38.122 10.62 38.0616 10.7668 37.9382C11.0975 37.6598 11.1401 37.1659 10.8618 36.8351C7.90467 33.3206 6.37889 28.8474 6.56542 24.2393C6.75311 19.6043 8.66405 15.2442 11.9464 11.9619C14.9288 8.97941 18.8772 7.09807 23.0641 6.66438C27.1925 6.23664 31.3816 7.2219 34.8602 9.43811C35.225 9.67043 35.7087 9.5632 35.9411 9.19855C36.1735 8.83381 36.0662 8.34992 35.7016 8.1176Z" fill="#00BBC9"/>
<path d="M41.8461 14.2619C41.6138 13.8972 41.1296 13.7899 40.7652 14.0223C40.4004 14.2546 40.2933 14.7386 40.5256 15.1031C42.7418 18.5818 43.7269 22.7711 43.2994 26.8992C42.8657 31.0861 40.9843 35.0344 38.0019 38.0171C34.7196 41.2993 30.3594 43.2103 25.7246 43.398C21.1173 43.5853 16.6431 42.0589 13.1287 39.1018C12.7979 38.8234 12.3041 38.866 12.0257 39.1968C11.7473 39.5276 11.7898 40.0215 12.1207 40.2999C15.7263 43.3336 20.2604 44.9793 24.9689 44.9792C25.2413 44.9792 25.5147 44.9736 25.7882 44.9626C30.8172 44.7589 35.5479 42.6855 39.1092 39.1243C42.3452 35.8884 44.3865 31.6041 44.857 27.0606C45.3207 22.5825 44.2514 18.0372 41.8461 14.2619Z" fill="#00BBC9"/>
</svg>
